# xmcd
#
# Track frame offsets: 
#        150
#        18687
#        35542
#        48975
#        67936
#        85440
#        103006
#        121093
#        136108
#        153365
#
# Disc length: 2297 seconds
#
# Revision: 0
# Processed by: cddbd v1.5.2PL0 Copyright (c) Steve Scherf et al.
# Submitted via: ExactAudioCopy v1.0b3
#
DISCID=7b08f70a
DTITLE=Eini - Mä jään
DYEAR=2011
DGENRE=Pop
TTITLE0=Mä jään
TTITLE1=Älä menetä mua
TTITLE2=Saisit haudatun kuun
TTITLE3=Ihan turhaa vaan
TTITLE4=Neitoperhonen
TTITLE5=Kevätaurinko
TTITLE6=Antaudutaan
TTITLE7=Illallinen
TTITLE8=Puuterilunta
TTITLE9=Sä vain tiedät yksin mistä aloittaa
EXTD=
EXTT0=
EXTT1=
EXTT2=
EXTT3=
EXTT4=
EXTT5=
EXTT6=
EXTT7=
EXTT8=
EXTT9=
PLAYORDER=
